<svg width="78" height="78" viewBox="0 0 78 78" fill="none" xmlns="http://www.w3.org/2000/svg">
<g clip-path="url(#clip0_822_23473)">
<path fill-rule="evenodd" clip-rule="evenodd" d="M38.9999 1C59.9867 1 77 18.0132 77 38.9999C77 59.9867 59.9867 77 38.9999 77C18.0132 77 1 59.9867 1 38.9999C1 18.0132 18.0132 1 38.9999 1Z" fill="#222C3B" stroke="#00F3AB" stroke-opacity="0.2"/>
<path d="M65.9998 41.9956C65.9998 57.2502 52.5506 67.2815 42.3341 68.8022C41.3257 68.9534 40.5811 68.9817 40.2795 68.9911C29.1394 69.3406 12.1182 59.3377 12.1182 41.9956C12.1088 27.4115 24.1442 15 39.0543 15C53.9361 15 65.9998 27.0904 65.9998 41.9956Z" stroke="url(#paint0_linear_822_23473)" stroke-width="0.5"/>
<path d="M46.0854 26.5327C46.3211 27.175 47.0091 27.4206 47.518 27.8079C51.3351 30.7738 54.1908 34.3537 56.1323 38.557C56.6224 39.6243 56.8486 40.7767 57.4518 41.8063C57.4612 41.7968 57.48 41.7874 57.4895 41.7874C57.5083 41.7779 57.5083 41.7685 57.5083 41.759C57.5649 41.6835 61.6929 37.9052 64.0114 32.8424C64.4921 31.7939 65.4629 29.6309 65.8021 26.6649C66.2828 22.4805 65.0105 21.1204 65.1236 18.0694C65.133 17.9089 65.1518 17.5027 64.8974 17.1532C64.3225 16.3409 62.7674 16.492 61.5233 16.6998C57.7911 17.3327 54.1719 17.9466 50.4868 21.0826C49.3087 22.0933 47.5651 23.8407 46.0854 26.5327Z" fill="url(#paint1_linear_822_23473)"/>
<path d="M31.8256 27.0903C31.59 27.7326 30.902 27.9782 30.3931 28.3655C26.576 31.3314 23.7203 34.9113 21.7788 39.1146C21.2887 40.1819 21.0625 41.3343 20.4593 42.3639C20.4499 42.3544 20.431 42.345 20.4216 42.345C20.4028 42.3355 20.4028 42.3261 20.4028 42.3167C20.3462 42.2411 16.2182 38.4628 13.8997 33.4C13.419 32.3515 12.4482 30.1885 12.1089 27.2226C11.6283 23.0381 12.9006 21.678 12.7875 18.627C12.7781 18.4665 12.7593 18.0603 13.0137 17.7108C13.5886 16.8985 15.1437 17.0496 16.3878 17.2574C20.12 17.8903 23.7392 18.5043 27.4243 21.6402C28.6024 22.6603 30.3554 24.3983 31.8256 27.0903Z" fill="url(#paint2_linear_822_23473)"/>
<path d="M30.987 28.3092C30.7985 28.857 30.2613 29.0648 29.8654 29.3954C26.8589 31.9174 24.6064 34.9683 23.0796 38.5482C22.6932 39.455 22.5141 40.4373 22.0429 41.3158C22.024 41.3063 21.9957 41.2874 21.9957 41.278C21.7978 39.7478 20.9119 38.586 20.0165 37.3675C18.1787 34.8644 17.3587 31.9268 16.765 28.942C16.2466 26.3539 16.0675 23.7375 16.0016 21.1022C15.9827 20.2615 16.2089 20.0915 17.0383 20.2615C22.6083 21.4139 27.2642 24.087 30.987 28.3092Z" fill="#052638"/>
<path d="M48.2813 27.9404C48.2813 27.9404 47.104 28.66 47.4998 29C50.4875 31.5409 53.6242 35.6373 55.1321 39.2267C55.5186 40.1429 56.6882 40.1158 57.15 40.9942C57.1689 40.9848 57.1971 40.9659 57.1971 40.9565C57.4045 39.4263 58.2904 38.2739 59.1952 37.0554C61.0425 34.5618 61.8813 31.6336 62.4939 28.6488C63.0311 26.0702 63.229 23.4443 63.3044 20.8184C63.3327 19.9778 63.1065 19.7983 62.2677 19.9683C56.6976 21.0923 52.0324 23.7371 48.2813 27.9404Z" fill="#052638"/>
<path d="M39.4784 59.3092C50.0032 59.3092 58.5353 51.1897 58.5353 41.1737C58.5353 31.1577 50.0032 23.0381 39.4784 23.0381C28.9535 23.0381 20.4214 31.1577 20.4214 41.1737C20.4214 51.1897 28.9535 59.3092 39.4784 59.3092Z" fill="url(#paint3_linear_822_23473)" fill-opacity="0.3" stroke="url(#paint4_linear_822_23473)" stroke-width="0.5"/>
<path d="M28.7576 51.545C32.4897 51.545 35.5152 48.5129 35.5152 44.7725C35.5152 41.0322 32.4897 38 28.7576 38C25.0255 38 22 41.0322 22 44.7725C22 48.5129 25.0255 51.545 28.7576 51.545Z" fill="url(#paint5_linear_822_23473)"/>
<path d="M29.2244 49.4197C32.1809 49.4197 34.5777 47.0176 34.5777 44.0546C34.5777 41.0915 32.1809 38.6895 29.2244 38.6895C26.2678 38.6895 23.8711 41.0915 23.8711 44.0546C23.8711 47.0176 26.2678 49.4197 29.2244 49.4197Z" fill="url(#paint6_linear_822_23473)"/>
<path d="M53.0125 50.9591C56.7446 50.9591 59.7701 47.9269 59.7701 44.1866C59.7701 40.4462 56.7446 37.4141 53.0125 37.4141C49.2804 37.4141 46.2549 40.4462 46.2549 44.1866C46.2549 47.9269 49.2804 50.9591 53.0125 50.9591Z" fill="url(#paint7_linear_822_23473)"/>
<path d="M53.1726 49.0701C56.1292 49.0701 58.5259 46.668 58.5259 43.705C58.5259 40.7419 56.1292 38.3398 53.1726 38.3398C50.2161 38.3398 47.8193 40.7419 47.8193 43.705C47.8193 46.668 50.2161 49.0701 53.1726 49.0701Z" fill="url(#paint8_linear_822_23473)"/>
<path d="M54.5959 42.7984C55.4808 42.7984 56.1981 42.0795 56.1981 41.1927C56.1981 40.3058 55.4808 39.5869 54.5959 39.5869C53.711 39.5869 52.9937 40.3058 52.9937 41.1927C52.9937 42.0795 53.711 42.7984 54.5959 42.7984Z" fill="url(#paint9_linear_822_23473)"/>
<path d="M50.8907 47.9554C50.9792 47.4102 50.609 46.8966 50.0638 46.8081C49.5187 46.7196 49.005 47.0898 48.9165 47.635C48.8281 48.1801 49.1983 48.6938 49.7434 48.7823C50.2886 48.8707 50.8022 48.5005 50.8907 47.9554Z" fill="url(#paint10_linear_822_23473)"/>
<path d="M38.5926 60.5183C38.9413 61.104 40.0535 62.9648 42.0704 62.9648C43.5124 62.9648 44.879 61.9919 45.5387 60.5278C45.6801 60.0366 46.1136 58.3931 45.2654 57.1274C43.7103 54.8132 38.8942 55.2288 37.9235 57.184C37.3109 58.4025 38.3005 60.0366 38.5926 60.5183Z" fill="url(#paint11_linear_822_23473)"/>
<path d="M49.5724 53.7646C49.874 55.6349 49.1389 57.5618 47.8665 58.8181C46.8392 59.8382 45.7083 60.1688 44.7281 60.4427C43.861 60.6883 39.4596 61.9162 36.0573 59.2242C35.5483 58.8275 33.4089 57.1273 33.3052 54.5297C33.2487 53.1318 33.8141 52.0455 34.1629 51.3749C35.3881 49.0702 36.7735 49.0607 37.9139 47.5778C40.6377 44.0262 37.8385 37.3765 39.6198 34.9301C39.7801 34.7034 40.2419 34.08 40.8733 34.0704C41.4859 34.0611 41.9572 34.6467 42.1268 34.8545C44.0495 37.2443 41.9289 44.1585 45.0202 47.6156C45.9627 48.6735 47.1691 49.1552 48.4697 51.2332C48.9787 52.0267 49.4028 52.7351 49.5724 53.7646Z" fill="url(#paint12_linear_822_23473)"/>
<path d="M41.5896 55.3801C40.7131 55.1818 39.9968 54.7 39.9497 54.6622C39.3182 54.2372 38.5548 53.7177 38.6114 53.0754C38.6396 52.7637 38.847 52.5275 38.8941 52.4803C39.1297 52.2347 39.4502 52.1497 39.9968 52.0175C40.0722 51.9986 40.1759 51.9702 40.3173 51.9514C41.7027 51.6963 43.2201 51.8758 43.2201 51.8758C43.5217 51.9136 43.8421 51.9608 44.1814 52.0364C44.4453 52.093 44.6998 52.1592 44.926 52.2253C45.1993 52.2914 45.4161 52.4803 45.4915 52.7353C45.5763 53.0282 45.4349 53.2737 45.4161 53.321C45.0674 53.9538 44.6621 54.3789 44.3793 54.6245C44.0401 54.9267 43.6442 55.2762 43.0504 55.4084C42.6829 55.4935 42.3153 55.4746 42.2305 55.4746C42.1362 55.4651 41.9006 55.4462 41.5896 55.3801Z" fill="#042A40"/>
<path d="M30.6383 43.148C31.5232 43.148 32.2406 42.4291 32.2406 41.5423C32.2406 40.6554 31.5232 39.9365 30.6383 39.9365C29.7535 39.9365 29.0361 40.6554 29.0361 41.5423C29.0361 42.4291 29.7535 43.148 30.6383 43.148Z" fill="url(#paint13_linear_822_23473)"/>
<path d="M26.3398 49.1445C26.8921 49.1445 27.3398 48.6968 27.3398 48.1445C27.3398 47.5922 26.8921 47.1445 26.3398 47.1445C25.7876 47.1445 25.3398 47.5922 25.3398 48.1445C25.3398 48.6968 25.7876 49.1445 26.3398 49.1445Z" fill="url(#paint14_linear_822_23473)"/>
</g>
<defs>
<linearGradient id="paint0_linear_822_23473" x1="586.818" y1="15.0001" x2="4984.45" y2="5405.55" gradientUnits="userSpaceOnUse">
<stop stop-color="#0093ED" stop-opacity="0.1"/>
<stop offset="1" stop-color="#00F3AB" stop-opacity="0.1"/>
</linearGradient>
<linearGradient id="paint1_linear_822_23473" x1="70" y1="64.5" x2="38.7004" y2="10.7508" gradientUnits="userSpaceOnUse">
<stop stop-color="#009EFF"/>
<stop offset="1" stop-color="#00F3AB"/>
</linearGradient>
<linearGradient id="paint2_linear_822_23473" x1="12" y1="73.5" x2="-18.5784" y2="6.65282" gradientUnits="userSpaceOnUse">
<stop stop-color="#009EFF"/>
<stop offset="1" stop-color="#00F3AB"/>
</linearGradient>
<linearGradient id="paint3_linear_822_23473" x1="36.9998" y1="23" x2="44.8353" y2="66.8864" gradientUnits="userSpaceOnUse">
<stop stop-color="#0093ED"/>
<stop offset="1" stop-color="#00F3AB"/>
</linearGradient>
<linearGradient id="paint4_linear_822_23473" x1="420.35" y1="194.166" x2="3367.35" y2="3624.37" gradientUnits="userSpaceOnUse">
<stop stop-color="#0093ED" stop-opacity="0.1"/>
<stop offset="1" stop-color="#00F3AB" stop-opacity="0.1"/>
</linearGradient>
<linearGradient id="paint5_linear_822_23473" x1="40.7449" y1="66.0859" x2="25.704" y2="32.6043" gradientUnits="userSpaceOnUse">
<stop stop-color="#009EFF"/>
<stop offset="1" stop-color="#00F3AB"/>
</linearGradient>
<linearGradient id="paint6_linear_822_23473" x1="138.076" y1="38.6895" x2="1011.9" y2="1109.82" gradientUnits="userSpaceOnUse">
<stop stop-color="#003351"/>
<stop offset="1" stop-color="#081F2B"/>
</linearGradient>
<linearGradient id="paint7_linear_822_23473" x1="64.9998" y1="65.5" x2="49.9588" y2="32.0184" gradientUnits="userSpaceOnUse">
<stop stop-color="#009EFF"/>
<stop offset="1" stop-color="#00F3AB"/>
</linearGradient>
<linearGradient id="paint8_linear_822_23473" x1="162.025" y1="38.3399" x2="1035.85" y2="1109.48" gradientUnits="userSpaceOnUse">
<stop stop-color="#003351"/>
<stop offset="1" stop-color="#081F2B"/>
</linearGradient>
<linearGradient id="paint9_linear_822_23473" x1="263.296" y1="360.738" x2="165.997" y2="39.7057" gradientUnits="userSpaceOnUse">
<stop stop-color="#009EFF"/>
<stop offset="1" stop-color="#00F3AB"/>
</linearGradient>
<linearGradient id="paint10_linear_822_23473" x1="267.2" y1="-48.9004" x2="60.0941" y2="-21.2377" gradientUnits="userSpaceOnUse">
<stop stop-color="#009EFF"/>
<stop offset="1" stop-color="#00F3AB"/>
</linearGradient>
<linearGradient id="paint11_linear_822_23473" x1="122.179" y1="111.615" x2="724.548" y2="790.382" gradientUnits="userSpaceOnUse">
<stop stop-color="#0093ED"/>
<stop offset="1" stop-color="#00F3AB"/>
</linearGradient>
<linearGradient id="paint12_linear_822_23473" x1="49.9998" y1="70" x2="26.9787" y2="31.6087" gradientUnits="userSpaceOnUse">
<stop stop-color="#009EFF"/>
<stop offset="1" stop-color="#00F3AB"/>
</linearGradient>
<linearGradient id="paint13_linear_822_23473" x1="239.339" y1="361.087" x2="142.039" y2="40.0554" gradientUnits="userSpaceOnUse">
<stop stop-color="#009EFF"/>
<stop offset="1" stop-color="#00F3AB"/>
</linearGradient>
<linearGradient id="paint14_linear_822_23473" x1="156.597" y1="247.145" x2="96.1137" y2="47.1445" gradientUnits="userSpaceOnUse">
<stop stop-color="#009EFF"/>
<stop offset="1" stop-color="#00F3AB"/>
</linearGradient>
<clipPath id="clip0_822_23473">
<rect width="78" height="78" fill="white"/>
</clipPath>
</defs>
</svg>
