<svg width="78" height="78" viewBox="0 0 78 78" fill="none" xmlns="http://www.w3.org/2000/svg">
<g clip-path="url(#clip0_627_23596)">
<path fill-rule="evenodd" clip-rule="evenodd" d="M38.9999 1C59.9867 1 77 18.0132 77 38.9999C77 59.9867 59.9867 77 38.9999 77C18.0132 77 1 59.9867 1 38.9999C1 18.0132 18.0132 1 38.9999 1Z" fill="#222C3B" stroke="#00F3AB" stroke-opacity="0.2"/>
<path d="M38.4998 27C42.6419 27 45.9998 24.9853 45.9998 22.5C45.9998 20.0147 42.6419 18 38.4998 18C34.3577 18 30.9998 20.0147 30.9998 22.5C30.9998 24.9853 34.3577 27 38.4998 27ZM38.4998 60C42.6419 60 45.9998 57.9853 45.9998 55.5C45.9998 53.0147 42.6419 51 38.4998 51C34.3577 51 30.9998 53.0147 30.9998 55.5C30.9998 57.9853 34.3577 60 38.4998 60ZM28.3691 32.9073C30.451 29.2849 30.4375 25.3616 28.3389 24.1444C26.2403 22.9272 22.8513 24.877 20.7694 28.4993C18.6875 32.1218 18.701 36.045 20.7996 37.2622C22.8982 38.4794 26.2872 36.5296 28.3691 32.9073ZM56.9784 49.5004C59.0603 45.878 59.0479 41.9554 56.9508 40.739C54.8536 39.5226 51.4658 41.4731 49.3839 45.0954C47.302 48.7178 47.3144 52.6405 49.4115 53.8568C51.5087 55.0732 54.8965 53.1228 56.9784 49.5004ZM28.3399 53.8558C30.4385 52.6386 30.452 48.7153 28.3701 45.0929C26.2882 41.4706 22.8992 39.5208 20.8007 40.738C18.7021 41.9552 18.6886 45.8784 20.7705 49.5009C22.8524 53.1232 26.2414 55.073 28.3399 53.8558ZM56.9526 37.2632C59.0497 36.0468 59.0621 32.1242 56.9802 28.5018C54.8983 24.8794 51.5105 22.929 49.4133 24.1453C47.3161 25.3617 47.3038 29.2843 49.3857 32.9067C51.4676 36.5291 54.8554 38.4796 56.9526 37.2632Z" fill="url(#paint0_linear_627_23596)"/>
</g>
<defs>
<linearGradient id="paint0_linear_627_23596" x1="39" y1="12" x2="44.5327" y2="67.8482" gradientUnits="userSpaceOnUse">
<stop stop-color="#85E0A3"/>
<stop offset="1" stop-color="#80CAFF"/>
</linearGradient>
<clipPath id="clip0_627_23596">
<rect width="78" height="78" fill="white"/>
</clipPath>
</defs>
</svg>
