<svg width="21" height="23" viewBox="0 0 21 23" fill="none" xmlns="http://www.w3.org/2000/svg">
<g id="Group 632731">
<path id="Vector" fill-rule="evenodd" clip-rule="evenodd" d="M9.681 0.147442C10.1413 -0.0238203 10.6443 -0.0465029 11.1183 0.0826304L11.319 0.147442L19.4857 3.18549C19.8996 3.33944 20.2609 3.60686 20.5275 3.95662C20.7942 4.30638 20.9552 4.72408 20.9918 5.16109L21 5.35321V11.5601C20.9997 13.4353 20.4892 15.2757 19.5222 16.8869C18.5553 18.4982 17.1678 19.8207 15.5062 20.7148L15.1958 20.8768L11.2828 22.8165C11.0675 22.9234 10.8322 22.9851 10.5917 22.9976C10.3512 23.0102 10.1107 22.9733 9.88517 22.8894L9.71717 22.8165L5.80417 20.8756C4.11321 20.0369 2.6819 18.7608 1.66134 17.1821C0.640772 15.6033 0.0688106 13.7806 0.00583347 11.9061L0 11.5589V5.35437C6.78422e-06 4.91588 0.125564 4.48642 0.362056 4.11597C0.598548 3.74552 0.936244 3.44933 1.33583 3.26188L1.51433 3.18665L9.681 0.1486V0.147442Z" fill="#5A5DE0"/>
<path id="Vector_2" d="M10.466 14.4825L6 11.945L10.4654 18L14.9351 11.945L10.4642 14.4825H10.466ZM10.534 4L6.06671 11.1301L10.5334 13.6699L15 11.1324L10.534 4Z" fill="#FFCD29"/>
</g>
</svg>
