<svg width="28" height="33" viewBox="0 0 28 33" fill="none" xmlns="http://www.w3.org/2000/svg">
<path d="M13.377 1.20275L11.4346 0L11.0646 2.30833C10.4758 5.95322 8.06635 9.34004 5.40874 11.7201C0.206044 16.3813 -0.933153 21.4472 0.677755 25.629C2.21929 29.6307 6.13172 32.3707 10.1027 32.8279L11.0215 32.9331C8.74925 31.4978 7.29096 28.1444 7.79967 25.6385C8.30221 23.1757 10.0164 20.8689 13.3091 18.7406L14.9694 17.6701L15.5891 19.5897C15.9544 20.724 16.5864 21.6352 17.2293 22.5608C17.5376 23.0068 17.8505 23.4576 18.1372 23.9371C19.1284 25.6019 19.3905 27.453 18.7508 29.2898C18.1681 30.9593 17.2061 32.272 15.8835 33L17.3788 32.8279C21.1062 32.3994 23.8425 31.082 25.6199 28.8788C27.3818 26.6947 28 23.883 28 20.8896C28 18.1018 26.8916 15.228 25.5844 12.8368C24.0521 10.0362 22.0527 7.71035 19.8699 5.45619C19.4922 6.23678 19.5215 6.55221 18.7446 7.80594C17.7361 5.03689 15.8423 2.70711 13.377 1.20275Z" fill="url(#paint0_linear_258_5619)"/>
<defs>
<linearGradient id="paint0_linear_258_5619" x1="11.6667" y1="-4.01419e-08" x2="14.0476" y2="32.9966" gradientUnits="userSpaceOnUse">
<stop stop-color="#FEA4FF"/>
<stop offset="1" stop-color="#FFCD29"/>
</linearGradient>
</defs>
</svg>
