<svg width="78" height="78" viewBox="0 0 78 78" fill="none" xmlns="http://www.w3.org/2000/svg">
<g clip-path="url(#clip0_627_23622)">
<path fill-rule="evenodd" clip-rule="evenodd" d="M38.9999 1C59.9867 1 77 18.0132 77 38.9999C77 59.9867 59.9867 77 38.9999 77C18.0132 77 1 59.9867 1 38.9999C1 18.0132 18.0132 1 38.9999 1Z" fill="#222C3B" stroke="#00F3AB" stroke-opacity="0.2"/>
<path d="M21.575 53.3C22.055 53.89 22.565 54.455 23.09 54.985C26.235 58.145 30.17 60.275 34.485 61.155L36.58 64C29.38 63.305 22.91 59.56 18.675 53.625L21.575 53.3ZM59.335 53.615C55.115 59.545 48.655 63.295 41.455 64L42.62 61.315C47.29 60.56 51.535 58.375 54.91 54.985C55.21 54.68 55.515 54.355 55.82 54.015L59.335 53.615ZM38.865 14.2L48.845 27.765L60.315 26.475L53.61 41.94L60.455 51.275L43.775 53.175L39.15 63.8L29.175 50.235L17.705 51.525L24.44 35.985L17.545 26.585L34.31 24.675L38.865 14.2ZM34.165 49.085L33.94 49.205C33.5 49.42 33.03 49.6 32.545 49.735L32.105 49.855L38.57 58.645L40.865 53.365L40.45 53.31C38.19 53.025 36.135 51.805 34.81 49.975L34.165 49.085ZM38.43 40.39L31.69 41.235L36.905 48.45C37.965 49.915 39.68 50.79 41.49 50.79C41.7 50.79 41.91 50.78 42.115 50.755L55.725 49.205L50.305 41.81C50.035 41.445 49.725 41.115 49.38 40.825L49.06 40.56L45.18 49.325L38.43 40.39ZM16.265 28.545L17.985 30.895C17 33.475 16.5 36.2 16.5 39C16.5 41.45 16.885 43.855 17.645 46.155L16.24 49.405C14.755 46.13 14 42.635 14 39C14 35.345 14.76 31.83 16.265 28.545ZM61.77 28.62C63.25 31.885 64 35.375 64 39C64 42.62 63.25 46.105 61.775 49.37L60.05 47.015C61.01 44.46 61.5 41.765 61.5 39C61.5 36.56 61.115 34.16 60.36 31.87L61.77 28.62ZM40.74 31.51L31.915 32.45C29.895 32.665 28.135 33.96 27.325 35.83L21.86 48.445L30.94 47.425C31.39 47.375 31.83 47.27 32.255 47.115L32.645 46.97L27.025 39.21L38.105 37.805L40.74 31.51ZM39.445 19.355L35.785 27.765C35.605 28.18 35.475 28.615 35.395 29.065L35.325 29.475L44.82 28.47L40.49 38.815L44.595 44.25L47.1 38.595L48.2 36.105C49.025 34.24 48.79 32.065 47.58 30.425L39.445 19.355ZM56.155 29.55L50.465 30.195L50.625 30.58C51.505 32.685 51.485 35.085 50.565 37.16L50.12 38.16L50.335 38.305C50.745 38.58 51.13 38.9 51.485 39.255L51.81 39.575L56.155 29.55ZM33.15 27.415L22.275 28.655L25.735 33.375L25.99 33.045C27.365 31.26 29.43 30.1 31.645 29.865L32.73 29.75L32.75 29.485C32.785 28.94 32.88 28.395 33.025 27.865L33.15 27.415ZM41.44 14C48.635 14.7 55.095 18.445 59.325 24.375L56.43 24.7C55.95 24.11 55.44 23.545 54.91 23.015C51.77 19.86 47.84 17.73 43.535 16.85L41.44 14ZM36.565 14L35.4 16.68C30.725 17.43 26.47 19.62 23.09 23.015C22.835 23.27 22.58 23.545 22.325 23.825L18.78 24.23C23.01 18.39 29.43 14.69 36.565 14Z" fill="url(#paint0_linear_627_23622)"/>
</g>
<defs>
<linearGradient id="paint0_linear_627_23622" x1="24.5" y1="12" x2="39" y2="64" gradientUnits="userSpaceOnUse">
<stop stop-color="#85E0A3"/>
<stop offset="1" stop-color="#80CAFF"/>
</linearGradient>
<clipPath id="clip0_627_23622">
<rect width="78" height="78" fill="white"/>
</clipPath>
</defs>
</svg>
