<svg width="78" height="78" viewBox="0 0 78 78" fill="none" xmlns="http://www.w3.org/2000/svg">
<g clip-path="url(#clip0_627_23633)">
<path fill-rule="evenodd" clip-rule="evenodd" d="M38.9999 1C59.9867 1 77 18.0132 77 38.9999C77 59.9867 59.9867 77 38.9999 77C18.0132 77 1 59.9867 1 38.9999C1 18.0132 18.0132 1 38.9999 1Z" fill="#222C3B" stroke="#00F3AB" stroke-opacity="0.2"/>
<path d="M63.0847 22.5442C62.2475 21.8449 61.2494 20.8898 59.4303 20.651C57.7239 20.4123 55.9852 21.6232 54.81 22.4248C53.6349 23.2264 51.4133 25.58 50.4956 26.2963C49.578 27.0126 47.2277 27.6778 43.4445 30.0826C39.6614 32.4873 24.8186 42.584 24.8186 42.584L28.6822 42.6352L11.4568 52.0326H13.1794L10.7002 54.028C10.7002 54.028 12.8896 54.642 14.7248 53.4141V53.9769C14.7248 53.9769 35.2343 45.4152 39.1945 47.6323L36.7797 48.3828C36.989 48.3828 40.8849 48.6557 40.8849 48.6557C41.0763 50.386 41.9849 51.9363 43.364 52.8853C45.7144 54.5226 45.7627 55.4266 45.7627 55.4266C45.7627 55.4266 44.5392 55.9553 44.5392 56.6204C44.5392 56.6204 46.3422 56.0405 48.0165 56.0917C49.0791 56.1344 50.133 56.3119 51.1557 56.6204C51.1557 56.6204 51.0269 55.9041 49.401 55.4266C47.775 54.949 46.1652 53.0729 45.3763 52.0496C44.3933 50.7245 44.1425 48.9485 44.7163 47.3765C45.2797 45.8245 47.2438 44.9717 51.3006 42.7546C56.0818 40.1281 57.1765 38.1838 57.8527 36.6659C58.5288 35.148 59.5269 32.1292 60.0903 30.7136C60.7987 28.8887 61.668 27.9166 62.3924 27.3367C63.1169 26.7568 66.3366 25.4777 66.3366 25.4777C66.3366 25.4777 63.8735 23.2093 63.0847 22.5442Z" fill="url(#paint0_linear_627_23633)"/>
</g>
<defs>
<linearGradient id="paint0_linear_627_23633" x1="47" y1="5.49994" x2="29.9827" y2="53.8245" gradientUnits="userSpaceOnUse">
<stop stop-color="#85E0A3"/>
<stop offset="1" stop-color="#80CAFF"/>
</linearGradient>
<clipPath id="clip0_627_23633">
<rect width="78" height="78" fill="white"/>
</clipPath>
</defs>
</svg>
