<svg width="68" height="68" viewBox="0 0 68 68" fill="none" xmlns="http://www.w3.org/2000/svg">
<g id="Group 632874">
<circle id="Ellipse 2" cx="34" cy="34" r="34" fill="#222C3C"/>
<g id="Group 632873">
<path id="Rectangle 72" d="M16 35.1719H52.9828L47.6808 50.0175C46.828 52.4055 44.5661 53.9995 42.0304 53.9995H26.9525C24.4168 53.9995 22.1549 52.4055 21.302 50.0175L16 35.1719Z" fill="url(#paint0_linear_1268_23451)"/>
<path id="Rectangle 73" d="M16 35.1719H52.9828L46.2587 23.0684H22.7242L16 35.1719Z" fill="url(#paint1_linear_1268_23451)"/>
<path id="Rectangle 74" d="M21.3794 21C21.3794 17.6863 24.0657 15 27.3794 15H40.9312C44.2449 15 46.9312 17.6863 46.9312 21V35.1725H21.3794V21Z" fill="url(#paint2_linear_1268_23451)"/>
<rect id="Rectangle 75" x="24.7412" y="21.7236" width="18.1552" height="3" rx="1.5" fill="white"/>
<rect id="Rectangle 76" x="24.7412" y="27.7764" width="10.7586" height="3" rx="1.5" fill="white"/>
<rect id="Rectangle 77" x="37.5171" y="27.7764" width="5.37932" height="3" rx="1.5" fill="white"/>
</g>
</g>
<defs>
<linearGradient id="paint0_linear_1268_23451" x1="34.4914" y1="35.1719" x2="34.4914" y2="56.0167" gradientUnits="userSpaceOnUse">
<stop stop-color="#85E0A3"/>
<stop offset="1" stop-color="#80CAFF"/>
</linearGradient>
<linearGradient id="paint1_linear_1268_23451" x1="34.4914" y1="35.1719" x2="34.4914" y2="23.0684" gradientUnits="userSpaceOnUse">
<stop stop-color="#5A5DE0"/>
<stop offset="1" stop-color="#80CAFF"/>
</linearGradient>
<linearGradient id="paint2_linear_1268_23451" x1="34.1553" y1="8.94826" x2="34.1553" y2="35.1725" gradientUnits="userSpaceOnUse">
<stop stop-color="#85E0A3"/>
<stop offset="1" stop-color="#80CAFF"/>
</linearGradient>
</defs>
</svg>
