<svg width="28" height="28" viewBox="0 0 28 28" fill="none" xmlns="http://www.w3.org/2000/svg">
<circle cx="14" cy="14" r="14" fill="url(#paint0_linear_655_23501)"/>
<path d="M13.8663 9.21429C15.3413 9.21429 16.537 8.49474 16.537 7.60714C16.537 6.71954 15.3413 6 13.8663 6C12.3914 6 11.1957 6.71954 11.1957 7.60714C11.1957 8.49474 12.3914 9.21429 13.8663 9.21429ZM13.8663 21C15.3413 21 16.537 20.2805 16.537 19.3929C16.537 18.5053 15.3413 17.7857 13.8663 17.7857C12.3914 17.7857 11.1957 18.5053 11.1957 19.3929C11.1957 20.2805 12.3914 21 13.8663 21ZM10.259 11.324C11.0003 10.0303 10.9955 8.62914 10.2482 8.19442C9.50095 7.7597 8.2942 8.45606 7.55286 9.74977C6.81154 11.0435 6.81635 12.4447 7.56361 12.8794C8.31088 13.3141 9.51763 12.6177 10.259 11.324ZM20.4462 17.2501C21.1876 15.9564 21.1832 14.5555 20.4364 14.1211C19.6896 13.6866 18.4833 14.3832 17.742 15.6769C17.0006 16.9707 17.005 18.3716 17.7518 18.806C18.4986 19.2404 19.7049 18.5438 20.4462 17.2501ZM10.2486 18.8057C10.9959 18.3709 11.0007 16.9698 10.2593 15.6761C9.518 14.3823 8.31125 13.686 7.56399 14.1207C6.81672 14.5554 6.81191 15.9566 7.55323 17.2503C8.29457 18.544 9.50132 19.2404 10.2486 18.8057ZM20.437 12.8797C21.1838 12.4453 21.1882 11.0444 20.4469 9.75064C19.7055 8.45694 18.4992 7.76034 17.7524 8.19476C17.0057 8.62919 17.0013 10.0301 17.7426 11.3238C18.4839 12.6175 19.6903 13.3141 20.437 12.8797Z" fill="white"/>
<defs>
<linearGradient id="paint0_linear_655_23501" x1="24.7352" y1="23.8824" x2="-2.31717" y2="17.7657" gradientUnits="userSpaceOnUse">
<stop stop-color="#80CAFF"/>
<stop offset="0.393161" stop-color="#81CFE9"/>
<stop offset="1" stop-color="#85E0A3"/>
</linearGradient>
</defs>
</svg>
