<svg width="34" height="34" viewBox="0 0 34 34" fill="none" xmlns="http://www.w3.org/2000/svg">
<circle cx="17" cy="17" r="17" fill="#8247E5"/>
<path d="M22.1436 13.3786C21.7781 13.1697 21.3081 13.1697 20.8903 13.3786L17.9661 15.1018L15.9817 16.1984L13.1097 17.9217C12.7441 18.1305 12.2742 18.1305 11.8564 17.9217L9.61097 16.564C9.24543 16.3551 8.98433 15.9373 8.98433 15.4674V12.8564C8.98433 12.4386 9.19321 12.0209 9.61097 11.7598L11.8564 10.4543C12.2219 10.2454 12.6919 10.2454 13.1097 10.4543L15.3551 11.812C15.7206 12.0209 15.9817 12.4386 15.9817 12.9086V14.6319L17.9661 13.483V11.7076C17.9661 11.2898 17.7572 10.8721 17.3394 10.611L13.1619 8.15666C12.7963 7.94778 12.3264 7.94778 11.9086 8.15666L7.62663 10.6632C7.20888 10.8721 7 11.2898 7 11.7076V16.6162C7 17.0339 7.20888 17.4517 7.62663 17.7128L11.8564 20.1671C12.2219 20.376 12.6919 20.376 13.1097 20.1671L15.9817 18.4961L17.9661 17.3473L20.8381 15.6762C21.2037 15.4674 21.6736 15.4674 22.0914 15.6762L24.3368 16.9817C24.7023 17.1906 24.9634 17.6084 24.9634 18.0783V20.6893C24.9634 21.107 24.7546 21.5248 24.3368 21.7859L22.1436 23.0914C21.7781 23.3003 21.3081 23.3003 20.8903 23.0914L18.6449 21.7859C18.2794 21.577 18.0183 21.1593 18.0183 20.6893V19.0183L16.0339 20.1671V21.8903C16.0339 22.3081 16.2428 22.7258 16.6606 22.9869L20.8903 25.4413C21.2559 25.6501 21.7258 25.6501 22.1436 25.4413L26.3734 22.9869C26.7389 22.7781 27 22.3603 27 21.8903V16.9295C27 16.5117 26.7911 16.094 26.3734 15.8329L22.1436 13.3786Z" fill="white"/>
</svg>
