<svg width="68" height="68" viewBox="0 0 68 68" fill="none" xmlns="http://www.w3.org/2000/svg">
<circle cx="34" cy="34" r="34" fill="#222C3C"/>
<path d="M34.5 13C31.8079 13 29.1422 13.5302 26.655 14.5605C24.1678 15.5907 21.9079 17.1007 20.0043 19.0043C16.1598 22.8488 14 28.0631 14 33.5C14 38.9369 16.1598 44.1512 20.0043 47.9957C21.9079 49.8993 24.1678 51.4093 26.655 52.4395C29.1422 53.4698 31.8079 54 34.5 54C39.9369 54 45.1512 51.8402 48.9957 47.9957C52.8402 44.1512 55 38.9369 55 33.5C55 30.8079 54.4698 28.1422 53.4395 25.655C52.4093 23.1678 50.8993 20.9079 48.9957 19.0043C47.0921 17.1007 44.8322 15.5907 42.345 14.5605C39.8578 13.5302 37.1921 13 34.5 13ZM34.5 26.0995C37.8077 28.2485 41.6665 29.3947 45.611 29.4C47.21 29.4 48.7475 29.2155 50.2235 28.867C50.654 30.3225 50.9 31.8805 50.9 33.5C50.9 42.5405 43.5405 49.9 34.5 49.9C28.35 49.9 22.9995 46.497 20.15 41.4745L23.7375 37.6V35.55C23.7375 34.8704 24.0075 34.2186 24.488 33.738C24.9686 33.2575 25.6204 32.9875 26.3 32.9875C26.9796 32.9875 27.6314 33.2575 28.112 33.738C28.5925 34.2186 28.8625 34.8704 28.8625 35.55V37.6H34.5M42.7 32.9875C42.0204 32.9875 41.3686 33.2575 40.888 33.738C40.4075 34.2186 40.1375 34.8704 40.1375 35.55C40.1375 36.2296 40.4075 36.8814 40.888 37.362C41.3686 37.8425 42.0204 38.1125 42.7 38.1125C43.3796 38.1125 44.0314 37.8425 44.512 37.362C44.9925 36.8814 45.2625 36.2296 45.2625 35.55C45.2625 34.8704 44.9925 34.2186 44.512 33.738C44.0314 33.2575 43.3796 32.9875 42.7 32.9875Z" fill="url(#paint0_linear_1398_23365)"/>
<defs>
<linearGradient id="paint0_linear_1398_23365" x1="24.5" y1="16.5" x2="34.5" y2="54" gradientUnits="userSpaceOnUse">
<stop stop-color="#85E0A3"/>
<stop offset="1" stop-color="#80CAFF"/>
</linearGradient>
</defs>
</svg>
