<svg width="50" height="50" viewBox="0 0 50 50" fill="none" xmlns="http://www.w3.org/2000/svg">
<path d="M0 12C0 5.37258 5.37258 0 12 0H38C44.6274 0 50 5.37258 50 12V38C50 44.6274 44.6274 50 38 50H12C5.37258 50 0 44.6274 0 38V12Z" fill="#8996F8"/>
<path d="M42.1147 28.5508C43.501 25.2618 36.6477 16.0729 30.1005 12.2447C25.9736 9.27893 21.6734 9.68637 20.8024 10.9885C18.8911 13.8463 27.1314 16.2678 32.6424 19.0935C31.4578 19.64 30.3414 20.6206 29.6849 21.8747C27.6304 19.4925 23.121 17.4411 17.8296 19.0935C14.2639 20.2071 11.3005 22.8323 10.1552 26.7973C9.87686 26.666 9.56874 26.593 9.24457 26.593C8.00493 26.593 7 27.6603 7 28.9768C7 30.2934 8.00493 31.3606 9.24457 31.3606C9.47434 31.3606 10.1928 31.197 10.1928 31.197L21.6734 31.2853C17.082 39.0209 13.4536 40.1517 13.4536 41.4918C13.4536 42.832 16.9254 42.4688 18.2289 41.9693C24.4693 39.5779 31.1718 32.1251 32.3219 29.9797C37.1518 30.6196 41.2108 30.6953 42.1147 28.5508Z" fill="url(#paint0_linear_1688_14052)"/>
<path fill-rule="evenodd" clip-rule="evenodd" d="M32.6415 19.0949C32.8969 18.988 32.8565 18.5878 32.7864 18.2731C32.6251 17.5499 29.8435 14.6328 27.2315 13.3262C23.6724 11.5459 21.0516 11.6375 20.6641 12.4579C21.3889 14.0361 24.7502 15.5179 28.2608 17.0654C29.7585 17.7256 31.2826 18.3981 32.6415 19.0949Z" fill="url(#paint1_linear_1688_14052)"/>
<path fill-rule="evenodd" clip-rule="evenodd" d="M28.1248 34.9767C27.405 34.6845 26.5919 34.4165 25.6675 34.1733C26.6531 32.3002 26.8599 29.5272 25.9291 27.774C24.6226 25.3135 22.9827 24.0039 19.1719 24.0039C17.0759 24.0039 11.4327 24.7537 11.3325 29.7568C11.322 30.2817 11.3323 30.7628 11.368 31.2052L21.673 31.2845C20.2837 33.6252 18.9826 35.3612 17.8435 36.6812C19.2112 37.0534 20.3398 37.3658 21.376 37.6527C22.3591 37.9249 23.2591 38.1741 24.2009 38.4293C25.6218 37.3299 26.9575 36.1311 28.1248 34.9767Z" fill="url(#paint2_linear_1688_14052)"/>
<path d="M10.0176 30.6916C10.4385 34.4922 12.4723 35.9817 16.6282 36.4225C20.7841 36.8633 23.1679 36.5676 26.3416 36.8742C28.9923 37.1304 31.3591 38.5649 32.2371 38.0692C33.0273 37.623 32.5852 36.0111 31.5278 34.977C30.1573 33.6364 28.2604 32.7044 24.9227 32.3737C25.5879 30.4395 25.4015 27.7275 24.3684 26.252C22.8747 24.1185 20.1176 23.154 16.6282 23.5754C12.9825 24.0157 9.48924 25.9219 10.0176 30.6916Z" fill="url(#paint3_linear_1688_14052)"/>
<defs>
<linearGradient id="paint0_linear_1688_14052" x1="17.4144" y1="25.6383" x2="42.024" y2="32.2094" gradientUnits="userSpaceOnUse">
<stop stop-color="white"/>
<stop offset="1" stop-color="white"/>
</linearGradient>
<linearGradient id="paint1_linear_1688_14052" x1="37.7068" y1="25.1466" x2="19.0385" y2="7.52597" gradientUnits="userSpaceOnUse">
<stop stop-color="#8697FF"/>
<stop offset="1" stop-color="#8697FF" stop-opacity="0"/>
</linearGradient>
<linearGradient id="paint2_linear_1688_14052" x1="28.6146" y1="35.6296" x2="11.2108" y2="26.2082" gradientUnits="userSpaceOnUse">
<stop stop-color="#8697FF"/>
<stop offset="1" stop-color="#8697FF" stop-opacity="0"/>
</linearGradient>
<linearGradient id="paint3_linear_1688_14052" x1="18.8711" y1="25.4446" x2="31.1644" y2="40.152" gradientUnits="userSpaceOnUse">
<stop stop-color="white"/>
<stop offset="0.983895" stop-color="#D1D8FF"/>
</linearGradient>
</defs>
</svg>
