<svg width="78" height="78" viewBox="0 0 78 78" fill="none" xmlns="http://www.w3.org/2000/svg">
<g clip-path="url(#clip0_627_23531)">
<path fill-rule="evenodd" clip-rule="evenodd" d="M38.9999 1C59.9867 1 77 18.0132 77 38.9999C77 59.9867 59.9867 77 38.9999 77C18.0132 77 1 59.9867 1 38.9999C1 18.0132 18.0132 1 38.9999 1Z" fill="#222C3B" stroke="#00F3AB" stroke-opacity="0.2"/>
<path d="M28.6843 20.2213C28.1742 19.9263 27.5531 19.9263 27.043 20.2213L17.1953 26.1262C16.6768 26.421 16.3571 26.9881 16.3636 27.6013V39.402C16.3665 40.0126 16.6836 40.5751 17.1953 40.8771L27.043 46.7775C27.2961 46.9272 27.5832 47.004 27.8746 47C28.1618 46.9975 28.4425 46.911 28.6843 46.7502L38.5 40.5C39.7151 39.7026 40.7846 39.0362 39.6462 39.7456L47.8526 34.6323L56.059 39.5784V49.4114L47.8526 54.3393L39.6462 49.4114V46.6409C39.6462 45.7002 38.9114 44.9377 38.0049 44.9377C37.0984 44.9377 36.3636 45.7002 36.3636 46.6409V50.3879C36.3664 50.9989 36.6835 51.5617 37.1952 51.864L47.0429 57.7683C47.2951 57.9214 47.5823 58.0014 47.8745 58C48.1565 58.0025 48.4348 57.9323 48.6842 57.7956L58.5319 51.8912C59.0518 51.5954 59.3717 51.0258 59.3636 50.4106V38.6019C59.3607 37.9909 59.0436 37.428 58.5319 37.1258L48.6842 31.2214C48.1741 30.9262 47.553 30.9262 47.0429 31.2214L37.1952 37.1076C35.8403 38 37.1952 37.1076 35.8403 38L27.8746 43.3235L19.6682 38.3989V28.5726L27.8746 23.6299L36.081 28.5726V31.1596C36.0882 32.0966 36.8189 32.8543 37.7223 32.8617C38.6258 32.8543 39.3565 32.0966 39.3636 31.1596V27.5967C39.3608 26.9862 39.0437 26.4237 38.532 26.1216L28.6843 20.2213Z" fill="url(#paint0_linear_627_23531)" stroke="#80CAFF"/>
<circle cx="14" cy="14" r="8" fill="url(#paint1_linear_627_23531)"/>
<path d="M14.6074 12.2168V18H12.6387V10.6035H14.4912L14.6074 12.2168ZM16.8359 10.5557L16.8018 12.3809C16.7061 12.3672 16.5898 12.3558 16.4531 12.3467C16.321 12.333 16.2002 12.3262 16.0908 12.3262C15.8128 12.3262 15.5713 12.3626 15.3662 12.4355C15.1657 12.5039 14.9971 12.6064 14.8604 12.7432C14.7282 12.8799 14.6279 13.0462 14.5596 13.2422C14.4958 13.4382 14.4593 13.6615 14.4502 13.9121L14.0537 13.7891C14.0537 13.3105 14.1016 12.8708 14.1973 12.4697C14.293 12.0641 14.432 11.7109 14.6143 11.4102C14.8011 11.1094 15.029 10.877 15.2979 10.7129C15.5667 10.5488 15.8743 10.4668 16.2207 10.4668C16.3301 10.4668 16.4417 10.4759 16.5557 10.4941C16.6696 10.5078 16.763 10.5283 16.8359 10.5557Z" fill="black"/>
</g>
<defs>
<linearGradient id="paint0_linear_627_23531" x1="30" y1="23.5" x2="31.7714" y2="57.9088" gradientUnits="userSpaceOnUse">
<stop stop-color="#85E0A3"/>
<stop offset="1" stop-color="#80CAFF"/>
</linearGradient>
<linearGradient id="paint1_linear_627_23531" x1="8.85714" y1="6" x2="19.1429" y2="19.1429" gradientUnits="userSpaceOnUse">
<stop stop-color="#85E0A3"/>
<stop offset="1" stop-color="#80CAFF"/>
</linearGradient>
<clipPath id="clip0_627_23531">
<rect width="78" height="78" fill="white"/>
</clipPath>
</defs>
</svg>
