<svg width="12" height="12" viewBox="0 0 12 12" fill="none" xmlns="http://www.w3.org/2000/svg">
<path d="M0.166916 4.97416L2.71618 2.42482C2.85781 2.28319 3.02472 2.18203 3.21693 2.12133C3.40913 2.06063 3.6064 2.05051 3.80872 2.09098L4.59778 2.2579C4.05151 2.90535 3.62157 3.4921 3.30797 4.01816C2.99437 4.54421 2.69089 5.18154 2.39752 5.93016L0.166916 4.97416ZM3.27762 6.35505C3.5103 5.62666 3.82653 4.93875 4.22631 4.2913C4.6261 3.64385 5.10905 3.03686 5.67515 2.47034C6.56536 1.5801 7.58204 0.914846 8.72516 0.47458C9.86828 0.034314 10.9355 -0.0996272 11.9269 0.0727564C12.0989 1.06416 11.9674 2.13145 11.5324 3.2746C11.0974 4.41775 10.4348 5.43445 9.54456 6.3247C8.98818 6.8811 8.38121 7.36426 7.72366 7.77417C7.06611 8.18409 6.37316 8.50519 5.6448 8.73746L3.27762 6.35505ZM7.4657 4.53409C7.69837 4.76677 7.98425 4.88311 8.32335 4.88311C8.66244 4.88311 8.94812 4.76677 9.18038 4.53409C9.41305 4.30141 9.52939 4.01573 9.52939 3.67703C9.52939 3.33833 9.41305 3.05244 9.18038 2.81936C8.94771 2.58668 8.66183 2.47034 8.32274 2.47034C7.98365 2.47034 7.69797 2.58668 7.4657 2.81936C7.23303 3.05204 7.11669 3.33793 7.11669 3.67703C7.11669 4.01613 7.23303 4.30182 7.4657 4.53409ZM7.04082 11.8331L6.06967 9.60241C6.81827 9.30904 7.45821 9.00554 7.98951 8.69194C8.52081 8.37833 9.10998 7.94838 9.757 7.40209L9.90874 8.19117C9.94921 8.3935 9.93909 8.5934 9.8784 8.79087C9.8177 8.98835 9.71654 9.15769 9.57491 9.29892L7.04082 11.8331ZM1.13806 8.29739C1.49213 7.94332 1.92206 7.76365 2.42787 7.75839C2.93368 7.75313 3.36361 7.92774 3.71768 8.28222C4.07174 8.6363 4.24877 9.06624 4.24877 9.57206C4.24877 10.0779 4.07174 10.5078 3.71768 10.8619C3.46477 11.1148 3.04253 11.3323 2.45093 11.5144C1.85934 11.6965 1.04237 11.8584 0 12C0.141626 10.958 0.303484 10.1436 0.485574 9.55689C0.667664 8.97014 0.885161 8.55031 1.13806 8.29739Z" fill="url(#paint0_linear_121_2084)"/>
<defs>
<linearGradient id="paint0_linear_121_2084" x1="7.5" y1="8" x2="1.5" y2="-2" gradientUnits="userSpaceOnUse">
<stop stop-color="#80CAFF"/>
<stop offset="1" stop-color="#85E0A3"/>
</linearGradient>
</defs>
</svg>
