<svg fill="none" height="78" viewBox="0 0 78 78" width="78" xmlns="http://www.w3.org/2000/svg" xmlns:xlink="http://www.w3.org/1999/xlink"><linearGradient id="a" gradientUnits="userSpaceOnUse" x1="62" x2="37.1268" y1="61" y2="1.82874"><stop offset="0" stop-color="#80caff"/><stop offset="1" stop-color="#85e0a3"/></linearGradient><path clip-rule="evenodd" d="m38.9999 1c20.9868 0 38.0001 17.0132 38.0001 37.9999 0 20.9868-17.0133 38.0001-38.0001 38.0001-20.9867 0-37.9999-17.0133-37.9999-38.0001 0-20.9867 17.0132-37.9999 37.9999-37.9999z" fill="#222c3b" fill-rule="evenodd" stroke="#00f3ab" stroke-opacity=".2"/><path d="m62 38.1277c-.0879 12.6548-10.5806 22.8723-23.4958 22.8723-10.6183 0-19.5923-6.906-22.5042-16.3849.2008.1108.4016.2216.615.3324 2.6609 5.478 8.3591 9.2573 14.961 9.2573 8.0578 0 14.7727-5.6381 16.2663-13.1227.7907.0862 1.594.1231 2.4098.1231 4.28 0 8.2963-1.1202 11.7479-3.0775zm-23-20.1277c10.6663 0 19.32 8.7423 19.32 19.5177v.0127c-2.7923 1.1691-5.8488 1.8171-9.0562 1.8171-1.1698 0-2.327-.0889-3.4465-.2541-2.0879 6.8617-8.4021 11.8428-15.8735 11.8428-2.088 0-4.0879-.3939-5.9369-1.1055-2.7043-3.3546-4.3269-7.6368-4.3269-12.313 0-10.7754 8.6537-19.5177 19.32-19.5177z" fill="url(#a)"/></svg>